<svg width="24" height="21" viewBox="0 0 24 21" fill="none" xmlns="http://www.w3.org/2000/svg">
<path d="M3.08086 0.0149009C3.25003 -0.0173421 3.44843 0.0126534 3.62164 0.013506L20.1512 0.0151333C21.595 0.0149008 22.4014 -0.185301 23.5 1.33834C23.3505 1.48785 23.1824 1.61868 23.0261 1.75735L17.784 6.44073C16.5818 7.53335 15.3685 8.61675 14.1467 9.67357C13.7321 10.0321 13.333 10.4334 12.9063 10.7664C11.974 11.4941 11.3417 10.603 10.6138 9.94314L3.68755 3.77417C2.79542 2.98398 1.91637 2.16007 1 1.41538C1.51478 0.58954 2.24668 0.0890756 3.08086 0.0149009Z" fill="black"/>
<path d="M23.9822 3.0105L24 3.04815C23.963 3.53058 23.9817 4.02735 23.9821 4.5119L23.9827 16.7035C23.9841 17.9272 24.0062 18.7108 23.2267 19.6638C22.7122 20.2927 22.1299 20.5647 21.4061 20.5706L2.99887 20.5715C1.62308 20.5712 0.43515 19.9913 0.0844781 18.1624C-0.00830017 17.6784 0.00616458 17.1939 0.00653965 16.7015L0.00703993 11.0474L0.00715869 5.68849C0.00712118 4.79703 -0.00885026 3.9015 0.00703993 3.0105C0.2861 3.20592 0.549338 3.46343 0.814071 3.68745L10.4161 11.816C11.8918 13.0488 12.3496 12.854 13.861 11.5657L22.9681 3.83262C23.299 3.55714 23.6277 3.23761 23.9822 3.0105Z" fill="black"/>
</svg>
